<svg width="256" height="192" xmlns="http://www.w3.org/2000/svg">

 <g>
  <title>background</title>
  <rect fill="none" id="canvas_background" height="194" width="258" y="-1" x="-1"/>
 </g>
 <g>
  <path stroke="null" id="svg_5" fill="#00d6ab" d="m250.98807,30.3285l-244.63791,0l0,-23.78538l244.63791,0l0,23.78538z"/>
  <path stroke="null" id="svg_6" fill="#6c757d" d="m5.012675,6.642943l245.975395,0l0,-2.642943l-245.975395,0l0,2.642943z"/>
  <path stroke="null" id="svg_7" fill="#6c757d" d="m80.248852,186.254205l2.667744,0l0,-179.711085l-2.667744,0l0,179.711085z"/>
  <path stroke="null" id="svg_8" fill="#6c757d" d="m173.622294,186.254205l2.667744,0l0,-179.711085l-2.667744,0l0,179.711085z"/>
  <path stroke="null" id="svg_9" fill="#6c757d" d="m5.550158,56.756539l245.437912,0l0,-2.642745l-245.437912,0l0,2.642745z"/>
  <path stroke="null" id="svg_10" fill="#6c757d" d="m5.550158,83.184581l245.437912,0l0,-2.642745l-245.437912,0l0,2.642745z"/>
  <path stroke="null" id="svg_11" fill="#6c757d" d="m5.550158,109.612822l245.437912,0l0,-2.642943l-245.437912,0l0,2.642943z"/>
  <path stroke="null" id="svg_12" fill="#6c757d" d="m5.550158,136.040865l245.437912,0l0,-2.64552l-245.437912,0l0,2.64552z"/>
  <path stroke="null" id="svg_13" fill="#6c757d" d="m5.550158,162.468907l245.437912,0l0,-2.642745l-245.437912,0l0,2.642745z"/>
  <path stroke="null" id="svg_14" fill="#00f2c3" d="m181.625726,75.256149l-106.712562,0l0,39.642163l106.712562,0m-8.003432,-7.928433l-90.705698,0l0,-23.785298l90.705698,0l0,23.785298z"/>
  <path stroke="null" id="svg_17" fill="#6c757d" d="m5.55016,56.75654l245.43791,0l0,-2.64275l-245.43791,0l0,2.64275z"/>
  <path stroke="null" id="svg_18" fill="#6c757d" d="m6,162.46891l245.43791,0l0,-2.64275l-245.43791,0l0,2.64275z"/>
  <path stroke="null" id="svg_19" fill="#6c757d" d="m4.983065,188.642753l246.454845,0l0,-2.64275l-246.454845,0l0,2.64275z"/>
  <path stroke="null" id="svg_20" fill="#6c757d" d="m5,186.2542l2.66775,0l0,-179.71108l-2.66775,0l0,179.71108z"/>
  <path stroke="null" id="svg_21" fill="#6c757d" d="m248.999998,186.2542l2.66775,0l0,-179.71108l-2.66775,0l0,179.71108z"/>
  <path stroke="null" id="svg_22" fill="#6c757d" d="m251.8131,6.64294l0,-2.64294l-244.8131,0l244.8131,2.64294z"/>
  <path stroke="null" id="svg_23" fill="#6c757d" d="m5.80008,30.64294l245.18799,0l0,-2.64294l-245.18799,0l0,2.64294z"/>
 </g>
</svg>