<svg width="256" height="192" xmlns="http://www.w3.org/2000/svg">

 <g>
  <title>background</title>
  <rect fill="none" id="canvas_background" height="402" width="582" y="-1" x="-1"/>
 </g>
 <g>
  <title>Layer 1</title>
  <path stroke="null" id="svg_2" fill="#6c757d" d="m128.75,2.750003l-130.000003,0l0,-3.5l130.000003,0l0,3.5z"/>
  <path fill-opacity="0" stroke="null" id="svg_3" fill="#a4d2e8" d="m2.958335,2.83334l122.583667,0l0,90.333357l-122.583667,0l0,-90.333357z"/>
  <path stroke="null" fill-opacity="0" id="svg_4" fill="#ffffff" d="m101.5833,101.166619l122.66633,0l0,18.166664l-122.66633,0l0,-18.166664z"/>
  <path stroke="null" fill-opacity="0.54" id="svg_5" fill="#00f2c3" d="m125.958008,13.416706l-123.91633,0l0,-10.625047l123.91633,0l0,10.625047z"/>
  <path stroke="null" id="svg_6" fill="#6c757d" d="m1.666679,14.6667l124.666327,0l0,-1.3334l-124.666327,0l0,1.3334z"/>
  <path id="svg_7" fill="#6c757d" d="m40,93.3333l1.3333,0l0,-90.66664l-1.3333,0l0,90.66664z"/>
  <path id="svg_8" fill="#6c757d" d="m86.6667,93.3333l1.3333,0l0,-90.66664l-1.3333,0l0,90.66664z"/>
  <path stroke="null" id="svg_9" fill="#6c757d" d="m1.916673,28l124.041327,0l0,-1.3333l-124.041327,0l0,1.3333z"/>
  <path stroke="null" id="svg_10" fill="#6c757d" d="m2.249999,41.3333l123.791323,0l0,-1.3333l-123.791323,0l0,1.3333z"/>
  <path stroke="null" id="svg_11" fill="#6c757d" d="m1.791679,54.6667l124.416316,0l0,-1.3334l-124.416316,0l0,1.3334z"/>
  <path stroke="null" id="svg_12" fill="#6c757d" d="m1.666664,68.25l124.541329,0l0,-1.3347l-124.541329,0l0,1.3347z"/>
  <path stroke="null" id="svg_13" fill="#6c757d" d="m2.166674,81.3333l124.166323,0l0,-1.3333l-124.166323,0l0,1.3333z"/>
  <path stroke="null" id="svg_14" fill="#00f2c3" d="m88.166697,39.914955l-48.198311,0l0,14.918335l48.198311,0m-3.614869,-2.983667l-40.968573,0l0,-8.951001l40.968573,0l0,8.951001z"/>
  <path stroke="null" id="svg_16" fill="#6c757d" d="m129.5,96.750003l-130.000003,0l0,-3.5l130.000003,0l0,3.5z"/>
  <path transform="rotate(90 127.5,49.25000381469728) " stroke="null" id="svg_17" fill="#6c757d" d="m192.5,51.000003l-130.000003,0l0,-3.5l130.000003,0l0,3.5z"/>
  <path transform="rotate(90 0.749999999999993,42.75000381469727) " stroke="null" id="svg_18" fill="#6c757d" d="m65.75,44.500003l-130.000003,0l0,-3.5l130.000003,0l0,3.5z"/>
 </g>
</svg>