<?xml version="1.0" encoding="UTF-8"?>
<svg  viewBox="0 0 48 47" version="1.1" xmlns="http://www.w3.org/2000/svg" xmlns:xlink="http://www.w3.org/1999/xlink">
    <!-- Generator: Sketch 49.2 (51160) - http://www.bohemiancoding.com/sketch -->
    <title>internetexplorer</title>
    <desc>Created with Sketch.</desc>
    <defs></defs>
    <g id="Page-1" stroke="none" stroke-width="1" fill="none" fill-rule="evenodd">
        <g id="Social-Icons---Isolated" transform="translate(-52.000000, -1624.000000)" fill="#00BBF5">
            <path d="M78.5122119,1660.45619 C73.2297692,1660.45619 69.4675972,1655.87687 69.3365294,1651.22142 L99.9586425,1651.22142 C100.426176,1641.19569 96.9587612,1634.08546 88.0762047,1629.12572 C89.3739514,1627.70604 100.005594,1623.97005 97.2847416,1634.12404 L98.3295563,1635.63469 C102.941514,1621.66277 89.0892137,1622.42244 79.9232011,1626.85669 C66.711677,1626.81312 59.2312553,1635.07989 57.1752957,1643.56403 C60.7466328,1638.46397 65.3632508,1635.44164 68.3740835,1634.60121 C51.1433779,1648.38344 43.1367042,1678.78101 66.5368033,1669.14717 L64.9127268,1668.17349 C50.8306791,1672.5907 56.2716847,1660.10695 58.9817021,1658.30651 C62.2256609,1664.90608 69.1376557,1670.18053 77.5934553,1670.18053 C88.3550007,1670.18053 96.3493248,1664.65325 99.5211671,1655.48545 L87.0975647,1655.48545 C85.3037408,1658.66328 82.8103058,1660.45619 78.5122119,1660.45619 L78.5122119,1660.45619 Z M78.5122119,1636.78751 C83.794538,1636.78751 87.3161276,1640.90995 87.447312,1644.99982 L69.4678302,1644.99982 C69.6428204,1641.51909 72.8689539,1636.78751 78.5122119,1636.78751 L78.5122119,1636.78751 Z" id="internetexplorer"></path>
        </g>
    </g>
</svg>