<svg width="1056" height="274" viewBox="0 0 1056 274" fill="none" xmlns="http://www.w3.org/2000/svg">
<mask id="mask0_22_91" style="mask-type:luminance" maskUnits="userSpaceOnUse" x="249" y="74" width="770" height="126">
<path d="M1018.94 74.7281H249.091V199.273H1018.94V74.7281Z" fill="white"/>
</mask>
<g mask="url(#mask0_22_91)">
<path d="M1001.18 74.7281V116.062C994.116 111.469 985.739 108.823 976.82 108.823C951.998 108.823 931.757 129.139 931.757 154.048C931.757 178.957 951.998 199.274 976.82 199.274C985.818 199.274 994.194 196.627 1001.18 192.035V199.274H1018.94V74.7281H1001.18ZM976.742 178.568C963.325 178.568 952.385 167.593 952.385 154.126C952.385 140.66 963.325 129.684 976.742 129.684C990.163 129.684 1001.1 140.66 1001.1 154.126C1001.18 167.593 990.236 178.568 976.742 178.568Z" fill="#202020"/>
<path d="M919.299 108.823H899.062V199.274H919.299V108.823Z" fill="#202020"/>
<path d="M919.299 74.7281H899.062V94.967H919.299V74.7281Z" fill="#202020"/>
<path d="M856.049 108.978H835.235V199.274H856.049V157.856C856.049 142.315 868.678 129.726 884.272 129.726V108.978C873.747 108.978 864.079 112.32 856.049 117.914V108.978Z" fill="#202020"/>
<path d="M766.902 178.568C743.954 178.568 725.302 159.964 725.302 137.079C725.302 114.194 743.954 95.5898 766.902 95.5898H820.444V74.7281H766.902C732.48 74.7281 704.464 102.673 704.464 137.001C704.464 171.329 732.48 199.274 766.902 199.274H799.605V178.49L766.902 178.568Z" fill="#202020"/>
<path d="M766.902 125.169V145.953H799.605V178.568H820.444V125.169H766.902Z" fill="#202020"/>
<path d="M673.37 74.7281H652.463V108.823H639.076V129.606H652.463V171.095C652.463 186.663 665.145 199.274 680.807 199.274H692.706V178.49H680.807C676.658 178.49 673.37 175.143 673.37 171.095V129.606H692.785V108.823H673.37V74.7281Z" fill="#202020"/>
<path d="M598.582 129.726C605.109 129.726 611.245 132.291 615.83 136.875L630.513 122.188C621.965 113.641 610.624 108.978 598.582 108.978C586.541 108.978 575.199 113.641 566.657 122.188C558.109 130.736 553.451 142.082 553.451 154.126C553.451 166.171 558.109 177.516 566.657 186.064C575.199 194.611 586.541 199.274 598.582 199.274C610.624 199.274 621.965 194.611 630.513 186.064L615.83 171.377C611.245 175.962 605.109 178.526 598.582 178.526C592.06 178.526 585.92 175.962 581.34 171.377C576.755 166.792 574.192 160.654 574.192 154.126C574.192 147.599 576.755 141.46 581.34 136.875C585.92 132.291 592.06 129.726 598.582 129.726Z" fill="#202020"/>
<path d="M523.232 116.205C516.172 111.62 507.795 108.978 498.876 108.978C474.054 108.978 453.812 129.26 453.812 154.126C453.812 178.992 474.054 199.274 498.876 199.274C507.874 199.274 516.25 196.632 523.232 192.047V199.274H540.993V108.978H523.232V116.205ZM498.876 178.604C485.46 178.604 474.524 167.647 474.524 154.204C474.524 140.761 485.46 129.804 498.876 129.804C512.297 129.804 523.232 140.761 523.232 154.204C523.232 167.647 512.297 178.604 498.876 178.604Z" fill="#202020"/>
<path d="M399.36 178.604C388.165 178.604 378.751 171.066 375.874 160.809H410.481H437.084H444.002C444.316 158.633 444.472 156.38 444.472 154.126C444.472 129.26 424.172 108.978 399.287 108.978C374.397 108.978 354.174 129.26 354.174 154.126C354.174 178.992 374.475 199.274 399.36 199.274C418.261 199.274 434.437 187.618 441.204 171.144H416.862C412.429 175.728 406.205 178.604 399.36 178.604ZM399.36 129.726C410.56 129.726 419.974 137.264 422.851 147.521H375.796C378.751 137.264 388.165 129.726 399.36 129.726Z" fill="#202020"/>
<path d="M345.539 114.738C345.539 92.6316 327.543 74.7281 305.495 74.7281H269.892H249.091V199.274H269.892V154.749H296.223L321.872 199.274H345.612L318.657 152.491C334.241 147.12 345.539 132.175 345.539 114.738ZM305.495 133.965H269.892V95.4342H305.495C316.167 95.4342 324.812 104.075 324.812 114.738C324.812 125.403 316.167 133.965 305.495 133.965Z" fill="#202020"/>
</g>
<mask id="mask1_22_91" style="mask-type:luminance" maskUnits="userSpaceOnUse" x="37" y="37" width="175" height="200">
<path d="M211.727 37.3628H37.363V236.636H211.727V37.3628Z" fill="white"/>
</mask>
<g mask="url(#mask1_22_91)">
<path d="M74.7268 74.7281H37.363V87.1829H74.7268V74.7281Z" fill="#107C41"/>
<path d="M211.728 74.7261H124.546V87.1804H211.728V74.7261Z" fill="#107C41"/>
<path d="M124.544 74.7261H87.1806V87.1804H124.544V74.7261Z" fill="#202020"/>
<path d="M193.046 37.3628H56.046V49.8176H193.046V37.3628Z" fill="#107C41"/>
<path d="M124.544 137H87.1806V149.455H124.544V137Z" fill="#202020"/>
<path d="M87.1821 199.272H56.046V211.726H87.1821V199.272Z" fill="#107C41"/>
<path d="M49.8172 193.046V56.0457H37.363V193.046H49.8172Z" fill="#107C41"/>
<path d="M87.2088 211.726V74.7261H74.757V211.726H87.2088Z" fill="#202020"/>
<path d="M209.887 225.999L122.72 138.813L113.916 147.62L201.082 234.805L209.887 225.999Z" fill="#202020"/>
<path d="M87.2088 74.7266V37.3628H74.757V74.7266H87.2088Z" fill="#107C41"/>
<path d="M211.728 56.0447H199.273C199.273 52.6197 196.471 49.8176 193.046 49.8176V37.3628C203.399 37.3628 211.728 45.7697 211.728 56.0447Z" fill="#107C41"/>
<path d="M49.8178 56.0447H37.363C37.363 45.7697 45.7699 37.3628 56.0449 37.3628V49.8176C52.6199 49.8176 49.8178 52.6197 49.8178 56.0447Z" fill="#107C41"/>
<path d="M56.0449 211.728C45.7699 211.728 37.363 203.321 37.363 193.046H49.8178C49.8178 196.471 52.6199 199.273 56.0449 199.273V211.728Z" fill="#107C41"/>
<path d="M87.1703 137H37.363V149.455H87.1703V137Z" fill="#107C41"/>
<path d="M211.727 137H161.909V149.455H211.727V137Z" fill="#0A4E29"/>
<path d="M211.726 149.455V56.0457H199.274V149.455H211.726Z" fill="#107C41"/>
<path d="M124.546 149.453V136.998C138.246 136.998 149.455 125.789 149.455 112.089C149.455 98.3894 138.246 87.1804 124.546 87.1804V74.7261C145.174 74.7261 161.91 91.4616 161.91 112.089C161.91 132.717 145.174 149.453 124.546 149.453Z" fill="#202020"/>
<path d="M161.91 236.636C134.432 236.636 112.092 214.296 112.092 186.818C112.092 159.34 134.432 137 161.91 137V149.455C141.282 149.455 124.546 166.19 124.546 186.818C124.546 207.446 141.282 224.182 161.91 224.182V236.636Z" fill="#0A4E29"/>
<path d="M211.727 224.18H174.363V236.635H211.727V224.18Z" fill="#0A4E29"/>
<path d="M211.726 236.635V199.272H199.274V236.635H211.726Z" fill="#0A4E29"/>
</g>
</svg>
