<svg width="128" height="96" viewBox="0 0 128 96" fill="none" xmlns="http://www.w3.org/2000/svg">
<g clip-path="url(#clip0_621_3)">
<path d="M110.148 55.1781C105.685 55.2015 101.806 56.277 98.5584 57.8669C97.3667 55.5054 96.175 53.4012 95.9647 51.8581C95.7311 50.0578 95.4507 48.9589 95.7311 46.8079C96.0115 44.6569 97.2732 41.5941 97.2499 41.3603C97.2265 41.1265 96.9695 40.0276 94.3992 40.0042C91.8289 39.9808 89.6091 40.4952 89.3521 41.1732C89.0951 41.8513 88.6044 43.3944 88.2773 44.9842C87.8333 47.3223 83.1367 55.6691 80.4496 60.0412C79.585 58.3345 78.8373 56.8381 78.6738 55.6457C78.4401 53.8454 78.1597 52.7465 78.4401 50.5955C78.7205 48.4445 79.9823 45.3817 79.9589 45.1479C79.9355 44.9141 79.6785 43.8152 77.1082 43.7918C74.5379 43.7685 72.3181 44.2828 72.0611 44.9609C71.8041 45.6389 71.5237 47.2288 70.9863 48.7719C70.4488 50.315 64.2101 64.2497 62.5744 67.8503C61.7333 69.6973 61.0089 71.1703 60.4949 72.1757C60.4949 72.1757 60.4715 72.2458 60.4014 72.3627C59.9574 73.2278 59.7004 73.6954 59.7004 73.6954C59.7004 73.6954 59.7004 73.6954 59.7004 73.7188C59.3499 74.35 58.9761 74.9346 58.7891 74.9346C58.6489 74.9346 58.3919 73.2512 58.8359 70.9599C59.7705 66.1201 61.9903 58.5916 61.9669 58.3345C61.9669 58.1942 62.3875 56.8849 60.5182 56.2068C58.6957 55.5288 58.0414 56.6511 57.8778 56.6511C57.7143 56.6511 57.5974 57.0485 57.5974 57.0485C57.5974 57.0485 59.6303 48.5848 53.7187 48.5848C50.0268 48.5848 44.933 52.6296 42.4094 56.277C40.8205 57.1421 37.4324 58.9891 33.8107 60.9764C32.4321 61.748 31.0067 62.5196 29.6748 63.2443C29.5814 63.1508 29.4879 63.0339 29.3945 62.9404C22.2444 55.295 9.01913 49.8941 9.57992 39.6301C9.79021 35.8893 11.0754 26.0695 34.979 14.1455C54.6533 4.44259 70.3087 7.13134 73.0191 13.0933C76.8979 21.6038 64.6307 37.409 44.3021 39.7003C36.5445 40.5653 32.4788 37.5726 31.4507 36.4504C30.3758 35.2814 30.2123 35.2112 29.815 35.445C29.1608 35.7957 29.5814 36.8479 29.815 37.4557C30.4226 39.0456 32.9227 41.8513 37.152 43.2307C40.8906 44.4465 49.9801 45.1245 60.9855 40.8693C73.2995 36.0997 82.9264 22.843 80.0991 11.7373C77.2718 0.467916 58.5788 -3.24957 40.8906 3.03976C30.3758 6.78063 18.9731 12.6725 10.7716 20.3413C1.02789 29.4596 -0.514277 37.3856 0.11661 40.7056C2.38313 52.4894 18.6226 60.1581 25.1184 65.8396C24.7913 66.0266 24.4875 66.1903 24.2305 66.3306C20.9826 67.9438 8.59854 74.4202 5.5142 81.2707C2.00927 89.033 6.07499 94.5975 8.7621 95.3457C17.1038 97.6603 25.6792 93.4986 30.2824 86.6248C34.8855 79.7509 34.3247 70.8196 32.1984 66.728C32.175 66.6813 32.1517 66.6345 32.1049 66.5877C32.9461 66.0968 33.8107 65.5824 34.6518 65.0914C36.3108 64.1094 37.9465 63.1976 39.3484 62.4494C38.554 64.6238 37.9698 67.219 37.6894 70.9599C37.339 75.3554 39.1382 81.0602 41.4981 83.3047C42.5496 84.2867 43.788 84.3101 44.5825 84.3101C47.3397 84.3101 48.5781 82.0188 49.9567 79.3067C51.6391 75.9867 53.1579 72.1289 53.1579 72.1289C53.1579 72.1289 51.2652 82.5566 56.4058 82.5566C58.2751 82.5566 60.1677 80.125 61.0089 78.8858C61.0089 78.9092 61.0089 78.9092 61.0089 78.9092C61.0089 78.9092 61.0556 78.8391 61.1491 78.6754C61.336 78.3715 61.4529 78.1844 61.4529 78.1844C61.4529 78.1844 61.4529 78.1611 61.4529 78.1377C62.2006 76.8284 63.883 73.8591 66.3831 68.9258C69.6077 62.5663 72.7154 54.617 72.7154 54.617C72.7154 54.617 72.9958 56.5575 73.9538 59.784C74.5146 61.6779 75.6829 63.7587 76.6175 65.7694C75.8698 66.8215 75.4025 67.4061 75.4025 67.4061C75.4025 67.4061 75.4025 67.4061 75.4258 67.4294C74.8183 68.2244 74.1641 69.0895 73.4397 69.9311C70.8928 72.9706 67.8552 76.4543 67.4346 77.4596C66.9439 78.652 67.0608 79.5171 67.9954 80.2185C68.673 80.7329 69.8881 80.803 71.1265 80.7329C73.4164 80.5692 75.0286 80.0081 75.8231 79.6574C77.0615 79.2132 78.5102 78.5351 79.8654 77.5298C82.3656 75.6827 83.8844 73.0407 83.7442 69.5571C83.6741 67.6399 83.0432 65.7227 82.2721 63.9224C82.5058 63.5951 82.7161 63.2677 82.9498 62.9404C86.8987 57.1654 89.9596 50.8293 89.9596 50.8293C89.9596 50.8293 90.24 52.7699 91.198 55.9964C91.6654 57.633 92.6234 59.41 93.4646 61.1401C89.7493 64.1562 87.4594 67.6632 86.6416 69.9545C85.1695 74.2098 86.3145 76.127 88.4876 76.5712C89.4689 76.7816 90.8709 76.314 91.899 75.8698C93.2075 75.4489 94.7497 74.7241 96.2218 73.6486C98.7219 71.8016 101.129 69.2297 100.988 65.7461C100.918 64.1562 100.498 62.5897 99.9136 61.07C103.068 59.7607 107.134 59.0359 112.321 59.6438C123.443 60.9531 125.64 67.897 125.219 70.8196C124.799 73.7421 122.462 75.332 121.691 75.823C120.92 76.314 120.663 76.4777 120.733 76.8284C120.826 77.3427 121.2 77.3194 121.854 77.2258C122.766 77.0622 127.696 74.8644 127.906 69.4869C128.257 62.6131 121.714 55.108 110.148 55.1781ZM24.3474 84.1231C20.6555 88.1445 15.5149 89.6642 13.2951 88.3783C10.9118 86.9989 11.8464 81.0602 16.3795 76.805C19.1367 74.2098 22.6884 71.8016 25.0483 70.3286C25.5858 70.0013 26.3802 69.5337 27.3382 68.9492C27.5018 68.8556 27.5953 68.8089 27.5953 68.8089C27.7822 68.692 27.9691 68.5751 28.156 68.4582C29.815 74.5371 28.2261 79.8912 24.3474 84.1231ZM51.2185 65.8396C49.9333 68.9725 47.2462 76.992 45.6106 76.5478C44.2086 76.1737 43.3441 70.0948 45.3302 64.086C46.3349 61.07 48.4613 57.4694 49.6997 56.0666C51.7092 53.822 53.929 53.0739 54.4664 53.9857C55.144 55.1781 52.0129 63.8756 51.2185 65.8396ZM73.393 76.4543C72.8556 76.7348 72.3415 76.9219 72.1078 76.7816C71.9443 76.6881 72.3415 76.314 72.3415 76.314C72.3415 76.314 75.1221 73.3213 76.2203 71.9652C76.8512 71.1703 77.5989 70.2351 78.3934 69.183C78.3934 69.2765 78.3934 69.3934 78.3934 69.4869C78.3934 73.0641 74.9352 75.4723 73.393 76.4543ZM90.497 72.5498C90.0998 72.2692 90.1699 71.334 91.5018 68.4114C92.0158 67.2658 93.2309 65.3486 95.3105 63.5015C95.5441 64.2497 95.7077 64.9745 95.6843 65.6525C95.661 70.1649 92.4364 71.8483 90.497 72.5498Z" fill="white"/>
</g>
<defs>
<clipPath id="clip0_621_3">
<rect width="128" height="96" fill="white"/>
</clipPath>
</defs>
</svg>
